<svg width="40" height="36" viewBox="0 0 40 36" fill="none" xmlns="http://www.w3.org/2000/svg">
<path d="M37.7938 14.3172C36.7245 16.4091 34.5279 18.7492 31.5843 21.1017C28.6693 23.4313 25.1398 25.6805 21.5536 27.6178C17.9676 29.5549 14.3622 31.1601 11.3077 32.215C9.77962 32.7427 8.41298 33.1245 7.27076 33.3444C6.26337 33.5384 5.51565 33.589 5.0154 33.5477C5.11228 33.4177 5.22485 33.2697 5.35499 33.0996L5.36303 33.0891C5.73949 32.5971 6.2117 31.9799 6.63752 31.2838C7.50094 29.8723 8.27719 27.9705 7.7963 25.6915C7.32175 23.4424 5.69277 21.1608 2.52906 18.7983C1.86994 18.3059 1.36439 17.2171 1.53147 15.4589C1.69502 13.7378 2.50445 11.6153 4.11172 9.53114C7.29618 5.40188 13.5703 1.5 23.6294 1.5C28.7551 1.5 33.0039 3.5872 35.5935 6.28895C38.2325 9.04223 38.9207 12.1129 37.7938 14.3172ZM4.213 33.372C4.21308 33.372 4.21489 33.3729 4.21821 33.3748C4.2146 33.373 4.21293 33.372 4.213 33.372ZM4.55167 34.2582C4.5486 34.2678 4.54643 34.273 4.54611 34.2732C4.5458 34.2733 4.54733 34.2685 4.55167 34.2582Z" stroke="white" stroke-width="3"/>
<path d="M13.4163 15.625V13.85H18.1913V9.3H20.0663V13.85H24.8413V15.625H20.0663V20.2H18.1913V15.625H13.4163Z" fill="white"/>
</svg>
