<svg width="1404" height="639" viewBox="0 0 1404 639" fill="none" xmlns="http://www.w3.org/2000/svg">
<path d="M1316.6 552.912H1352C1365.25 552.912 1376 542.167 1376 528.912V370.747V225.371C1376 212.116 1365.25 201.371 1352 201.371H577.404C564.15 201.371 553.404 212.119 553.404 225.374C553.404 275.276 553.404 320.475 553.404 346.788C553.404 360.042 564.15 370.747 577.404 370.747H952.093C965.347 370.747 976.093 381.492 976.093 394.747V528.912C976.093 542.167 986.838 552.912 1000.09 552.912H1035.49C1048.75 552.912 1059.49 542.167 1059.49 528.912V429.142C1059.49 415.887 1070.24 405.142 1083.49 405.142H1114.41C1127.67 405.142 1138.41 415.887 1138.41 429.142V489.846C1138.41 503.101 1149.16 513.846 1162.41 513.846H1181.13C1194.39 513.846 1205.13 503.101 1205.13 489.846V429.142C1205.13 415.887 1215.88 405.142 1229.13 405.142H1268.6C1281.85 405.142 1292.6 415.887 1292.6 429.142V528.912C1292.6 542.167 1303.35 552.912 1316.6 552.912Z" stroke="#165A99" stroke-width="56"/>
<ellipse cx="336.049" cy="301.951" rx="296.399" ry="292.951" fill="white"/>
<path d="M303.48 61.116C409.962 61.1161 381.73 25.2973 471.243 25.2974C527.628 25.2974 598.143 144.616 635.767 196.541C637.146 198.444 637.896 200.682 637.663 203.02C635.872 220.998 622.621 266.34 605.76 271.087C602.706 271.947 599.887 269.621 598.346 266.848C533.543 150.184 543.619 111.392 441.55 147.309C438.308 148.45 435.675 151.217 434.689 154.509C399.909 270.575 454.022 248.051 454.022 320.088C454.022 393.208 425.632 401.697 398.27 383.801C381.717 372.975 342.014 322.334 326.49 292.807C322.041 284.345 310.363 263.257 300.814 263.699C273.421 264.966 235.643 285.318 216.655 258.424C174.994 199.418 269.9 176.26 276.967 149.179C283.477 124.231 196.998 61.116 303.48 61.116Z" stroke="#165A99" stroke-width="50"/>
<path d="M34.6661 193.758C9.40047 308.568 38.2408 408.535 68.6734 462.803C72.9029 470.345 83.6516 469.365 87.463 461.603C128.574 377.878 187.596 331.376 141.509 303.63C88.1519 271.508 94.4277 298.519 54.3686 192.818C50.6412 182.983 36.9266 183.486 34.6661 193.758Z" stroke="#165A99" stroke-width="50"/>
<path d="M302.462 545.504C253.452 559.084 250.125 568.118 222.68 576.45C212.079 579.669 210.812 594.111 221.482 597.095C316.762 623.751 476.777 630.655 546.627 527.535C549.763 522.904 548.563 516.661 543.939 513.515C531.836 505.282 515.103 495.401 502.49 489.373C498.631 487.529 494.039 488.424 490.844 491.266C399.317 572.687 341.387 545.853 305.39 545.115C304.409 545.095 303.408 545.242 302.462 545.504Z" stroke="#165A99" stroke-width="50"/>
</svg>
