<svg width="220" height="114" viewBox="0 0 220 114" fill="none" xmlns="http://www.w3.org/2000/svg">
<path d="M52.25 86.1849C52.25 94.8437 49.7292 101.506 44.6875 106.173C39.6746 110.868 32.4414 113.216 22.9882 113.216C16.5716 113.216 11.4726 112.316 7.6914 110.517V98.878C12.6185 101.689 17.5885 103.095 22.6015 103.095C27.5572 103.095 31.4246 101.788 34.2032 99.1731C37.0104 96.5867 38.414 92.9882 38.414 88.3777V84.498H38.1993C34.8476 89.8115 29.8632 92.4681 23.2461 92.4681C17.2591 92.4681 12.4609 90.3737 8.85157 86.1849C5.27083 81.996 3.48047 76.3874 3.48047 69.3591C3.48047 61.5155 5.45704 55.2604 9.41015 50.5936C13.3919 45.8986 18.6055 43.5513 25.0507 43.5513C30.8946 43.5513 35.2774 45.7861 38.1993 50.2563H38.414V44.6898H52.25V86.1849ZM38.5429 65.0157C38.5429 61.9232 37.5833 59.3228 35.664 57.2142C33.7735 55.0776 31.3815 54.0093 28.4882 54.0093C25.1082 54.0093 22.4297 55.3166 20.4531 57.931C18.5052 60.5176 17.5313 64.1583 17.5313 68.853C17.5313 72.9296 18.4766 76.1486 20.3672 78.51C22.2578 80.8433 24.7643 82.0101 27.8868 82.0101C31.0378 82.0101 33.6015 80.8152 35.5782 78.4256C37.5547 76.0361 38.5429 72.9296 38.5429 69.1061V65.0157ZM64.625 91.3296V22.2976H78.461V91.3296H64.625ZM88.9024 68.5158C88.9024 60.8128 91.0936 54.7403 95.4765 50.2984C99.8593 45.8285 105.803 43.5934 113.309 43.5934C120.441 43.5934 126.027 45.744 130.066 50.0454C134.134 54.3187 136.168 60.2365 136.168 67.7989C136.168 75.1645 134.005 81.1104 129.68 85.6367C125.354 90.1628 119.553 92.426 112.277 92.426C105.173 92.426 99.5014 90.2332 95.2617 85.8474C91.0221 81.4619 88.9024 75.6846 88.9024 68.5158ZM97.4961 68.2627C97.4961 73.6324 98.8711 77.8633 101.621 80.9558C104.4 84.0483 108.124 85.5946 112.793 85.5946C117.605 85.5946 121.272 84.0904 123.793 81.0823C126.314 78.0462 127.574 73.7025 127.574 68.052C127.574 62.3729 126.314 58.0154 123.793 54.9793C121.272 51.943 117.605 50.4249 112.793 50.4249C108.066 50.4249 104.328 52.0134 101.578 55.1901C98.8568 58.3669 97.4961 62.7244 97.4961 68.2627ZM196.453 91.3296H184.68L159.672 61.6421C158.812 60.6018 158.225 59.7865 157.91 59.1963H157.695V91.3296H149.101V26.0087H157.695V56.7504H157.91C158.397 55.9913 158.984 55.1901 159.672 54.3467L183.82 26.0087H194.434L166.504 57.3407L196.453 91.3296ZM202.855 28.2435C202.855 26.7818 203.357 25.5589 204.359 24.5748C205.391 23.5628 206.651 23.0567 208.141 23.0567C209.659 23.0567 210.934 23.5488 211.965 24.5327C213.025 25.5166 213.555 26.7535 213.555 28.2435C213.555 29.7054 213.025 30.9284 211.965 31.9125C210.934 32.8683 209.659 33.3461 208.141 33.3461C206.622 33.3461 205.362 32.8683 204.359 31.9125C203.357 30.9284 202.855 29.7054 202.855 28.2435ZM203.844 91.3296V44.6898H212.266V91.3296H203.844Z" fill="white"/>
<path d="M110.001 91.3295C119.964 91.3295 128.041 81.4213 128.041 69.1989C128.041 56.9764 119.964 47.0682 110.001 47.0682C100.038 47.0682 91.9609 56.9764 91.9609 69.1989C91.9609 81.4213 100.038 91.3295 110.001 91.3295Z" fill="white"/>
</svg>
